<?xml version="1.0" encoding="UTF-8" standalone="no"?>
<svg
   xmlns:dc="http://purl.org/dc/elements/1.1/"
   xmlns:cc="http://creativecommons.org/ns#"
   xmlns:rdf="http://www.w3.org/1999/02/22-rdf-syntax-ns#"
   xmlns:svg="http://www.w3.org/2000/svg"
   xmlns="http://www.w3.org/2000/svg"
   version="1.1"
   id="svg87"
   width="300"
   height="300"
   viewBox="0 0 300 300">
  <metadata
     id="metadata93">
    <rdf:RDF>
      <cc:Work
         rdf:about="">
        <dc:format>image/svg+xml</dc:format>
        <dc:type
           rdf:resource="http://purl.org/dc/dcmitype/StillImage" />
        <dc:title></dc:title>
      </cc:Work>
    </rdf:RDF>
  </metadata>
  <defs
     id="defs91" />
  <path
     style="fill:#000000;stroke-width:0.69604027"
     d="m 164.37399,285 c 12.76259,-37.30394 17.48816,-75.93019 17.13711,-111.67219 -14.28195,16.80983 -40.37462,46.37087 -59.94989,48.47383 -16.28842,1.74985 -0.79248,-14.24779 5.01868,-19.36959 18.10125,-15.84147 29.49798,-30.0965 44.56981,-48.59616 -14.49734,-7.20394 -26.85559,-12.37457 -41.65913,-17.61919 -3.43729,25.24732 -10.06094,55.90512 -26.62445,73.7737 -17.996708,19.41471 -43.428311,19.41754 -58.600743,-0.51162 -13.092087,-17.19661 -13.047432,-41.56826 -25.107602,-55.86345 -4.707663,-5.38344 -8.361518,-11.29995 -0.59463,-11.03677 13.272589,0.44972 25.74789,8.33666 30.112301,21.45487 l 60.589714,-16.63837 2.18777,-16.56336 c -7.05844,-2.71036 -19.300709,-13.95115 -8.33049,-15.90958 25.34044,-4.52383 57.18236,7.74483 78.26412,17.26723 C 179.86006,73.794943 133.82175,68.97701 86.209323,72.971828 74.68138,79.494517 35.165127,97.4212 25.941203,88.023734 23.890428,85.934377 27.744248,83.157052 30.162774,81.539011 47.889294,69.679619 61.435709,61.066485 75.67317,46.951196 90.509506,32.24217 88.644521,27.279343 87.925641,15 c 10.992715,1.337576 37.505449,3.068125 41.389209,14.581414 3.60045,10.673407 -7.76693,18.82037 -16.40295,25.255751 48.07193,-1.325351 84.79046,18.350702 87.43274,63.227585 14.47756,-23.022 18.15022,-33.659873 17.32983,-48.473661 -0.68332,-12.33884 3.93578,-11.612968 11.05537,-7.656686 8.96538,4.98197 14.09574,10.938374 13.85909,20.08865 -0.42922,12.834727 -17.15307,36.668127 -37.39958,62.162597 l 35.00073,22.04076 c 40.32967,25.39653 44.51173,30.31626 45.65079,37.02115 2.1352,12.56844 -28.50486,-2.10081 -32.47178,-4.29761 L 201.84356,170.41628 C 201.49678,207.65641 195.73687,284.97778 164.37417,285 Z M 80.306256,199.96933 c 12.55441,-4.38125 24.178014,-20.10046 26.208954,-34.63029 -18.629987,4.7994 -38.62254,11.32566 -55.708576,9.09946 3.725314,18.30019 7.647394,33.15685 29.499622,25.53083 z"
     id="path97" />
</svg>
