<?xml version="1.0" encoding="UTF-8" standalone="no"?>
<svg
   xmlns:dc="http://purl.org/dc/elements/1.1/"
   xmlns:cc="http://creativecommons.org/ns#"
   xmlns:rdf="http://www.w3.org/1999/02/22-rdf-syntax-ns#"
   xmlns:svg="http://www.w3.org/2000/svg"
   xmlns="http://www.w3.org/2000/svg"
   viewBox="0 0 300 300"
   height="300"
   width="300"
   id="svg746"
   version="1.1">
  <metadata
     id="metadata752">
    <rdf:RDF>
      <cc:Work
         rdf:about="">
        <dc:format>image/svg+xml</dc:format>
        <dc:type
           rdf:resource="http://purl.org/dc/dcmitype/StillImage" />
        <dc:title></dc:title>
      </cc:Work>
    </rdf:RDF>
  </metadata>
  <defs
     id="defs750" />
  <path
     id="path756"
     d="m 149.97878,281.42322 c -1.31773,-4.4373 -1.3168,-5.16982 0.0165,-13.11791 l 1.07875,-6.4303 -3.83273,-37.96639 c -4.94244,-48.95922 -4.27096,-44.35098 -6.64116,-45.57665 -2.78678,-1.44111 -5.78735,-1.27392 -13.37318,0.74513 -9.71955,2.58696 -13.91718,2.41672 -25.94098,-1.05202 -7.453324,-2.15022 -11.264504,-3.66572 -14.924654,-5.93474 -6.55815,-4.06557 -16.29203,-12.80054 -20.97087,-18.81881 -3.53001,-4.54055 -8.54999,-13.19782 -7.98214,-13.76568 0.53768,-0.53767 27.47213,6.88616 29.65373,8.17334 3.43176,2.02478 14.145424,4.5353 23.442694,5.49331 9.19926,0.9479 25.878,0.57044 29.15971,-0.65993 l 2.13783,-0.80151 0.4927,-23.19043 c 0.34606,-16.28808 0.271,-23.41212 -0.25218,-23.9353 -0.40968,-0.40968 -2.83597,-0.85162 -5.39173,-0.98208 -4.19565,-0.21415 -5.71916,0.14012 -15.69053,3.64872 -8.62357,3.03435 -15.509,6.21645 -31.420354,14.52096 l -20.37669,10.63505 -9.99752,-3.15301 c -5.49864,-1.73416 -10.28951,-3.4314 -10.64639,-3.77166 -0.40216,-0.38341 -0.23845,-1.47431 0.43053,-2.86903 1.01298,-2.11186 2.3913,-2.77805 22.39327,-10.82326 13.6078,-5.47334 25.43188,-10.76094 32.703764,-14.624743 8.39808,-4.46219 13.37804,-6.624067 18.95867,-8.230239 8.62629,-2.482753 13.59368,-4.783979 15.16304,-7.024555 3.25206,-4.642976 -0.52959,-21.83326 -8.11791,-36.90166 -2.34869,-4.663875 -2.91153,-5.231481 -11.38359,-11.479913 -7.29505,-5.380356 -9.18891,-7.143947 -10.43434,-9.716676 -0.83688,-1.728775 -1.42214,-4.007936 -1.30057,-5.064801 0.20145,-1.751226 0.59811,-2.002549 4.47453,-2.835003 L 115.66046,15 l 13.34912,4.25634 c 17.59183,5.609122 26.44511,8.844505 29.10259,10.635372 3.68496,2.483301 5.27621,6.15629 5.28926,12.208986 0.01,4.47761 -0.27188,5.765073 -1.88696,8.628726 -1.68691,2.991017 -1.88867,4.019306 -1.81169,9.233395 0.0476,3.227144 0.46006,7.23287 0.91649,8.901615 l 0.82986,3.034081 9.43798,-0.387675 c 8.35342,-0.343125 9.90702,-0.604357 13.51962,-2.273279 7.91323,-3.655701 21.76078,-2.854233 43.05209,2.491769 7.50758,1.885065 7.97779,2.115253 13.11567,6.420628 11.74277,9.840068 12.60841,11.743261 9.74738,21.430579 -2.19778,7.441583 -14.24691,26.849933 -21.44595,34.544433 -9.09446,9.72038 -21.51354,18.3993 -35.09001,24.52223 -20.3299,9.16869 -23.50326,11.19019 -25.74256,16.39854 -0.89453,2.08057 -1.55656,10.69945 -3.24956,42.30504 -2.31171,43.15584 -3.49724,57.03549 -5.24472,61.4029 -0.80245,2.00551 -1.98466,3.33222 -4.04549,4.53994 -1.60143,0.93851 -3.26067,1.70638 -3.68719,1.70638 -0.42652,0 -1.25347,-1.60955 -1.83767,-3.57678 z m 44.15235,-146.02806 8.97387,-3.13856 9.1858,-9.39784 c 8.76241,-8.96469 9.37855,-9.78467 13.36788,-17.79062 3.46932,-6.962361 4.1821,-8.991775 4.1821,-11.907249 0,-5.194859 -1.10384,-6.3532 -8.89673,-9.336013 l -6.7836,-2.596494 -14.50159,2.883838 c -20.01632,3.980514 -26.24851,6.197787 -33.75715,12.010034 l -2.68839,2.081007 0.46209,9.699717 c 0.80353,16.86729 2.39449,27.93496 4.86581,33.84966 l 1.00811,2.41274 7.80396,-2.81582 c 4.29218,-1.5487 11.8422,-4.22818 16.77784,-5.9544 z"
     style="fill:#000000;stroke-width:0.69029814" />
</svg>
